<svg width="255.000000" height="56.000000" viewBox="0 0 255 56" fill="none" xmlns="http://www.w3.org/2000/svg" xmlns:xlink="http://www.w3.org/1999/xlink">
	<desc>
			Created with Pixso.
	</desc>
	<defs>
		<clipPath id="clip597_246">
			<rect id="icon / sidebar / inactive / 6. articles" width="16.000000" height="16.000000" transform="translate(32.000000 20.000000)" fill="white" fill-opacity="0"/>
		</clipPath>
	</defs>
	<g clip-path="url(#clip597_246)">
		<g opacity="0.400000">
			<path id="Vector" d="M47 31.25L47 20.75C47 20.33 46.66 20 46.25 20L36 20C34.34 20 33 21.34 33 23L33 33C33 34.65 34.34 36 36 36L46.25 36C46.66 36 47 35.66 47 35.25L47 34.75C47 34.51 46.89 34.3 46.72 34.16C46.59 33.68 46.59 32.31 46.72 31.83C46.89 31.69 47 31.48 47 31.25ZM37 24.18C37 24.08 37.08 24 37.18 24L43.81 24C43.91 24 44 24.08 44 24.18L44 24.81C44 24.91 43.91 25 43.81 25L37.18 25C37.08 25 37 24.91 37 24.81L37 24.18ZM37 26.18C37 26.08 37.08 26 37.18 26L43.81 26C43.91 26 44 26.08 44 26.18L44 26.81C44 26.91 43.91 27 43.81 27L37.18 27C37.08 27 37 26.91 37 26.81L37 26.18ZM44.91 34L36 34C35.44 34 35 33.55 35 33C35 32.45 35.45 32 36 32L44.91 32C44.85 32.53 44.85 33.46 44.91 34Z" fill="#9FA2B4" fill-opacity="1.000000" fill-rule="nonzero"/>
		</g>
	</g>
</svg>
