<svg width="255.000000" height="56.000000" viewBox="0 0 255 56" fill="none" xmlns="http://www.w3.org/2000/svg" xmlns:xlink="http://www.w3.org/1999/xlink">
	<desc>
			Created with Pixso.
	</desc>
	<defs>
		<clipPath id="clip597_238">
			<rect id="icon / sidebar / inactive / 4. contacts" width="16.000000" height="16.000000" transform="translate(32.000000 20.000000)" fill="white" fill-opacity="0"/>
		</clipPath>
	</defs>
	<g clip-path="url(#clip597_238)">
		<g opacity="0.400000">
			<path id="Vector" d="M34.4 27.2C35.28 27.2 36 26.48 36 25.6C36 24.71 35.28 24 34.4 24C33.51 24 32.8 24.71 32.8 25.6C32.8 26.48 33.51 27.2 34.4 27.2ZM45.6 27.2C46.48 27.2 47.2 26.48 47.2 25.6C47.2 24.71 46.48 24 45.6 24C44.71 24 44 24.71 44 25.6C44 26.48 44.71 27.2 45.6 27.2ZM46.4 28L44.8 28C44.36 28 43.96 28.17 43.67 28.46C44.68 29.01 45.39 30.01 45.55 31.2L47.2 31.2C47.64 31.2 48 30.84 48 30.4L48 29.6C48 28.71 47.28 28 46.4 28ZM40 28C41.54 28 42.8 26.74 42.8 25.2C42.8 23.65 41.54 22.4 40 22.4C38.45 22.4 37.2 23.65 37.2 25.2C37.2 26.74 38.45 28 40 28ZM41.92 28.8L41.71 28.8C41.19 29.05 40.61 29.2 40 29.2C39.38 29.2 38.81 29.05 38.28 28.8L38.08 28.8C36.49 28.8 35.2 30.09 35.2 31.68L35.2 32.4C35.2 33.06 35.73 33.59 36.4 33.59L43.6 33.59C44.26 33.59 44.8 33.06 44.8 32.4L44.8 31.68C44.8 30.09 43.51 28.8 41.92 28.8ZM36.32 28.46C36.03 28.17 35.64 28 35.2 28L33.59 28C32.71 28 32 28.71 32 29.6L32 30.4C32 30.84 32.35 31.2 32.8 31.2L34.44 31.2C34.6 30.01 35.32 29.01 36.32 28.46Z" fill="#9FA2B4" fill-opacity="1.000000" fill-rule="nonzero"/>
		</g>
	</g>
</svg>
