<svg width="255.000000" height="56.000000" viewBox="0 0 255 56" fill="none" xmlns="http://www.w3.org/2000/svg" xmlns:xlink="http://www.w3.org/1999/xlink">
	<desc>
			Created with Pixso.
	</desc>
	<defs>
		<clipPath id="clip597_234">
			<rect id="icon / sidebar / inactive / 3. ideas" width="16.000000" height="16.000000" transform="translate(32.000000 20.000000)" fill="white" fill-opacity="0"/>
		</clipPath>
	</defs>
	<g clip-path="url(#clip597_234)">
		<g opacity="0.400000">
			<path id="Vector" d="M37.5 34.19C37.5 34.39 37.56 34.58 37.66 34.75L38.2 35.55C38.29 35.69 38.41 35.8 38.56 35.88C38.7 35.95 38.87 36 39.03 36L40.96 36C41.12 36 41.29 35.95 41.43 35.88C41.58 35.8 41.7 35.69 41.79 35.55L42.33 34.75C42.43 34.58 42.49 34.39 42.49 34.19L42.49 33L37.5 33L37.5 34.19ZM34.5 25.5C34.5 26.88 35.01 28.15 35.86 29.11C36.37 29.7 37.18 30.93 37.49 31.97C37.49 31.98 37.49 31.99 37.49 32L42.5 32C42.5 31.99 42.5 31.98 42.5 31.97C42.81 30.93 43.62 29.7 44.13 29.11C44.98 28.15 45.5 26.88 45.5 25.5C45.5 22.45 43.02 19.99 39.98 20C36.79 20 34.5 22.59 34.5 25.5ZM40 23C38.62 23 37.5 24.12 37.5 25.5C37.5 25.77 37.27 26 37 26C36.72 26 36.5 25.77 36.5 25.5C36.5 23.57 38.07 22 40 22C40.27 22 40.5 22.22 40.5 22.5C40.5 22.77 40.27 23 40 23Z" fill="#9FA2B4" fill-opacity="1.000000" fill-rule="nonzero"/>
		</g>
	</g>
</svg>
