<svg width="16.000000" height="16.000000" viewBox="0 0 16 16" fill="none" xmlns="http://www.w3.org/2000/svg" xmlns:xlink="http://www.w3.org/1999/xlink">
	<desc>
			Created with Pixso.
	</desc>
	<defs/>
	<path id="Vector" d="M8 16C9.1 16 9.99 15.1 9.99 14L6 14C6 15.1 6.89 16 8 16ZM14.73 11.32C14.12 10.67 12.99 9.69 12.99 6.5C12.99 4.07 11.29 2.12 8.99 1.65L8.99 1C8.99 0.44 8.55 0 8 0C7.44 0 7 0.44 7 1L7 1.65C4.7 2.12 3 4.07 3 6.5C3 9.69 1.87 10.67 1.26 11.32C1.08 11.52 0.99 11.76 1 12C1 12.51 1.4 13 2 13L13.99 13C14.59 13 14.99 12.51 15 12C15 11.76 14.91 11.52 14.73 11.32Z" fill="#C5C7CD" fill-opacity="1.000000" fill-rule="nonzero"/>
</svg>
