<svg width="255.000000" height="56.000000" viewBox="0 0 255 56" fill="none" xmlns="http://www.w3.org/2000/svg" xmlns:xlink="http://www.w3.org/1999/xlink">
	<desc>
			Created with Pixso.
	</desc>
	<defs/>
	<g opacity="0.400000">
		<path id="Vector" d="M47.52 28.94L40.54 28.94L45.19 33.58C45.36 33.76 45.66 33.78 45.84 33.6C46.98 32.53 47.76 31.09 47.99 29.46C48.03 29.18 47.8 28.94 47.52 28.94ZM47.05 27.03C46.81 23.52 44 20.71 40.49 20.47C40.22 20.45 40 20.67 40 20.94L40 27.52L46.58 27.52C46.85 27.52 47.07 27.3 47.05 27.03ZM38.58 28.94L38.58 21.96C38.58 21.68 38.34 21.45 38.06 21.48C34.55 21.98 31.87 25.04 32 28.71C32.13 32.48 35.37 35.57 39.14 35.52C40.63 35.51 42 35.03 43.12 34.23C43.35 34.06 43.37 33.72 43.17 33.52L38.58 28.94Z" fill="#9FA2B4" fill-opacity="1.000000" fill-rule="nonzero"/>
	</g>
</svg>
