<svg width="255.000000" height="56.000000" viewBox="0 0 255 56" fill="none" xmlns="http://www.w3.org/2000/svg" xmlns:xlink="http://www.w3.org/1999/xlink">
	<desc>
			Created with Pixso.
	</desc>
	<defs>
		<clipPath id="clip597_250">
			<rect id="icon / sidebar / inactive / a_1. settings" width="16.000000" height="16.000000" transform="translate(32.000000 20.000000)" fill="white" fill-opacity="0"/>
		</clipPath>
	</defs>
	<g clip-path="url(#clip597_250)">
		<g opacity="0.400000">
			<path id="Vector" d="M47.23 29.86L45.9 29.09C46.03 28.37 46.03 27.62 45.9 26.9L47.23 26.13C47.38 26.04 47.45 25.86 47.4 25.69C47.05 24.58 46.46 23.57 45.69 22.74C45.57 22.61 45.38 22.58 45.23 22.66L43.9 23.43C43.34 22.95 42.69 22.58 42 22.34L42 20.8C42 20.63 41.87 20.47 41.7 20.44C40.55 20.18 39.38 20.19 38.29 20.44C38.12 20.47 38 20.63 38 20.8L38 22.34C37.3 22.59 36.66 22.96 36.09 23.44L34.77 22.67C34.61 22.58 34.42 22.61 34.3 22.74C33.53 23.57 32.94 24.58 32.59 25.7C32.54 25.86 32.61 26.04 32.77 26.13L34.1 26.9C33.96 27.63 33.96 28.37 34.1 29.1L32.77 29.86C32.61 29.95 32.55 30.13 32.59 30.3C32.94 31.41 33.53 32.42 34.3 33.26C34.42 33.39 34.62 33.42 34.77 33.33L36.1 32.56C36.66 33.04 37.3 33.41 38 33.66L38 35.2C38 35.37 38.12 35.52 38.29 35.56C39.44 35.82 40.61 35.8 41.7 35.56C41.88 35.52 42 35.37 42 35.2L42 33.66C42.69 33.41 43.34 33.04 43.9 32.56L45.23 33.33C45.38 33.42 45.57 33.39 45.69 33.26C46.46 32.42 47.05 31.42 47.4 30.3C47.45 30.13 47.38 29.95 47.23 29.86ZM40 30.5C38.62 30.5 37.5 29.37 37.5 28C37.5 26.62 38.62 25.5 40 25.5C41.37 25.5 42.5 26.62 42.5 28C42.5 29.37 41.37 30.5 40 30.5Z" fill="#9FA2B4" fill-opacity="1.000000" fill-rule="nonzero"/>
		</g>
	</g>
</svg>
