<svg width="16.000000" height="16.000000" viewBox="0 0 16 16" fill="none" xmlns="http://www.w3.org/2000/svg" xmlns:xlink="http://www.w3.org/1999/xlink">
	<desc>
			Created with Pixso.
	</desc>
	<defs>
		<clipPath id="clip597_93">
			<rect id="icon / sort" width="16.000000" height="16.000000" fill="white" fill-opacity="0"/>
		</clipPath>
	</defs>
	<g clip-path="url(#clip597_93)">
		<path id="Vector" d="M1.12 4.26L3.31 2.12C3.48 1.95 3.76 1.95 3.93 2.12L6.12 4.26C6.39 4.53 6.2 5 5.81 5L4.5 5L4.5 13.57C4.5 13.8 4.3 14 4.06 14L3.18 14C2.94 14 2.75 13.8 2.75 13.57L2.75 5L1.43 5C1.04 5 0.85 4.53 1.12 4.26ZM7.56 3.71L14.56 3.71C14.8 3.71 15 3.52 15 3.28L15 2.42C15 2.19 14.8 2 14.56 2L7.56 2C7.32 2 7.12 2.19 7.12 2.42L7.12 3.28C7.12 3.52 7.32 3.71 7.56 3.71ZM7.12 6.71L7.12 5.85C7.12 5.62 7.32 5.42 7.56 5.42L12.81 5.42C13.05 5.42 13.25 5.62 13.25 5.85L13.25 6.71C13.25 6.95 13.05 7.14 12.81 7.14L7.56 7.14C7.32 7.14 7.12 6.95 7.12 6.71ZM7.12 13.57L7.12 12.71C7.12 12.47 7.32 12.28 7.56 12.28L9.31 12.28C9.55 12.28 9.75 12.47 9.75 12.71L9.75 13.57C9.75 13.8 9.55 14 9.31 14L7.56 14C7.32 14 7.12 13.8 7.12 13.57ZM7.12 10.14L7.12 9.28C7.12 9.04 7.32 8.85 7.56 8.85L11.06 8.85C11.3 8.85 11.5 9.04 11.5 9.28L11.5 10.14C11.5 10.37 11.3 10.57 11.06 10.57L7.56 10.57C7.32 10.57 7.12 10.37 7.12 10.14Z" fill="#C5C7CD" fill-opacity="1.000000" fill-rule="nonzero"/>
	</g>
</svg>
