<svg width="255.000000" height="56.000000" viewBox="0 0 255 56" fill="none" xmlns="http://www.w3.org/2000/svg" xmlns:xlink="http://www.w3.org/1999/xlink">
	<desc>
			Created with Pixso.
	</desc>
	<defs>
		<clipPath id="clip597_254">
			<rect id="icon / sidebar / inactive / a_2. subscription" width="16.000000" height="16.000000" transform="translate(32.000000 20.000000)" fill="white" fill-opacity="0"/>
		</clipPath>
	</defs>
	<g clip-path="url(#clip597_254)">
		<g opacity="0.400000">
			<path id="Vector" d="M37.03 31.33C36.76 31.06 36.9 31.13 36.25 30.96C35.95 30.88 35.69 30.72 35.45 30.54L34.03 34.02C33.9 34.35 34.15 34.72 34.51 34.71L36.16 34.64L37.29 35.84C37.54 36.1 37.98 36.02 38.12 35.68L39.75 31.7C39.41 31.88 39.03 32 38.64 32C38.03 32 37.46 31.76 37.03 31.33ZM45.96 34.02L44.54 30.54C44.3 30.72 44.04 30.88 43.75 30.96C43.09 31.13 43.23 31.06 42.96 31.33C42.53 31.76 41.96 32 41.35 32C40.96 32 40.58 31.88 40.24 31.7L41.87 35.68C42.01 36.02 42.45 36.1 42.7 35.84L43.83 34.64L45.48 34.71C45.84 34.72 46.09 34.35 45.96 34.02ZM42.21 30.62C42.69 30.13 42.75 30.18 43.43 29.99C43.86 29.87 44.2 29.53 44.32 29.09C44.55 28.2 44.49 28.3 45.13 27.66C45.44 27.33 45.57 26.86 45.45 26.42C45.22 25.53 45.22 25.66 45.45 24.77C45.57 24.33 45.44 23.85 45.13 23.53C44.49 22.88 44.55 22.99 44.32 22.1C44.2 21.66 43.86 21.31 43.43 21.2C42.55 20.96 42.66 21.02 42.02 20.37C41.7 20.05 41.24 19.92 40.81 20.04C39.93 20.28 40.06 20.28 39.18 20.04C38.75 19.92 38.29 20.05 37.97 20.37C37.33 21.02 37.44 20.96 36.56 21.2C36.13 21.31 35.79 21.66 35.67 22.1C35.44 22.99 35.5 22.88 34.86 23.53C34.55 23.85 34.42 24.33 34.54 24.77C34.77 25.65 34.77 25.53 34.54 26.42C34.42 26.86 34.55 27.33 34.86 27.66C35.5 28.3 35.44 28.2 35.67 29.09C35.79 29.53 36.13 29.87 36.56 29.99C37.26 30.18 37.32 30.15 37.78 30.62C38.19 31.04 38.83 31.12 39.33 30.8C39.53 30.68 39.76 30.61 40 30.61C40.23 30.61 40.46 30.68 40.66 30.8C41.16 31.12 41.8 31.04 42.21 30.62ZM37.05 25.49C37.05 23.84 38.37 22.49 40 22.49C41.62 22.49 42.94 23.84 42.94 25.49C42.94 27.15 41.62 28.49 40 28.49C38.37 28.49 37.05 27.15 37.05 25.49Z" fill="#9FA2B4" fill-opacity="1.000000" fill-rule="nonzero"/>
		</g>
	</g>
</svg>
