<svg width="16.000000" height="11.000000" viewBox="0 0 16 11" fill="none" xmlns="http://www.w3.org/2000/svg" xmlns:xlink="http://www.w3.org/1999/xlink">
	<desc>
			Created with Pixso.
	</desc>
	<defs/>
	<g opacity="0.400000">
		<path id="Vector" d="M3.55 2.33L12.44 2.33L12.44 7.66L3.55 7.66L3.55 2.33ZM14.66 5C14.66 5.73 15.26 6.33 16 6.33L16 9C16 9.73 15.4 10.33 14.66 10.33L1.33 10.33C0.59 10.33 0 9.73 0 9L0 6.33C0.73 6.33 1.33 5.73 1.33 5C1.33 4.26 0.73 3.66 0 3.66L0 1C0 0.26 0.59 -0.34 1.33 -0.34L14.66 -0.34C15.4 -0.34 16 0.26 16 1L16 3.66C15.26 3.66 14.66 4.26 14.66 5ZM13.33 2.11C13.33 1.74 13.03 1.44 12.66 1.44L3.33 1.44C2.96 1.44 2.66 1.74 2.66 2.11L2.66 7.88C2.66 8.25 2.96 8.55 3.33 8.55L12.66 8.55C13.03 8.55 13.33 8.25 13.33 7.88L13.33 2.11Z" fill="#9FA2B4" fill-opacity="1.000000" fill-rule="nonzero"/>
	</g>
</svg>
